# xmcd
#
# Track frame offsets:
# 150
# 18772
# 32112
# 52916
# 64960
# 78835
# 91070
# 106656
# 120066
# 136901
# 151954
# 168082
#
# Disc length: 2453 seconds
#
#
# Revision: 0
# Processed by: cddbd v1.5.2PL0 Copyright (c) Steve Scherf et al.
# Submitted via: FreeRIP 2.951 
#
DISCID=7909930c
DTITLE=Tio Nanato Canta Seus Grandes Sucessos - 
DYEAR=1900
DGENRE=
TTITLE0=Santuário de Xucros
TTITLE1=Paleteando Moro Véio
TTITLE2=Primavera
TTITLE3=João Tatu
TTITLE4=Cova de Touro
TTITLE5=Lombo Quente
TTITLE6=Baqueando o Mocotó
TTITLE7=Ecos do Pampa
TTITLE8=Pendencia de Galo
TTITLE9=Queixo Seco
TTITLE10=Empurrando o Peito
TTITLE11=Xucro de Berço
EXTD=
EXTT0=
EXTT1=
EXTT2=
EXTT3=
EXTT4=
EXTT5=
EXTT6=
EXTT7=
EXTT8=
EXTT9=
EXTT10=
EXTT11=
PLAYORDER=
